# xmcd
#
# Track frame offsets: 
#        150
#        16887
#        33307
#        46443
#        57918
#        79341
#        92949
#        105113
#        121362
#        137727
#        148720
#        163845
#        179367
#        193304
#        209751
#        226000
#        236732
#        250407
#        264307
#        283187
#
# Disc length: 3942 seconds
#
# Revision: 0
# Processed by: cddbd v1.5.2PL0 Copyright (c) Steve Scherf et al.
# Submitted via: ExactAudioCopy v0.99pb4
#
DISCID=260f6414
DTITLE=Various Artist - Deep Dip Into Georgia Soul Vol.2
DYEAR=1965
DGENRE=Soul
TTITLE0=Bobby Thomas - The Road Is Rough
TTITLE1=Percy Sledge - Walkin' In The Sun
TTITLE2=Pep Brown - Are You Leaving Me
TTITLE3=Mary Holmes - After I Shed A Tear
TTITLE4=Billy Young - Just Cause I Was Talking
TTITLE5=Dee and Lola - Punch A Hole In Our Love
TTITLE6=Dee and Lola - Do Right Woman Do Right Man
TTITLE7=Leon Austin - Give Me A Hole In Our Love
TTITLE8=Rudy Ludaway - Trying To Make It Home
TTITLE9=Prince Greene - Please Tell Me
TTITLE10=Nancy Day - To Much To Soon
TTITLE11=Oscar Toney Jr. - I Wouldn't Be A Poor Boy
TTITLE12=Robert Thomas - Bye Bye Baby
TTITLE13=The Automations - World Of Make Believe
TTITLE14=Carolyn Champion - Look What You've Done To Our Love
TTITLE15=Little Clarence - Broken Hearted
TTITLE16=Randolph Walker - Do Me Wrong
TTITLE17=Vivilore Jprdan - Maybe
TTITLE18=Dynamite Dyous - You Made My Living Worth While
TTITLE19=Arthur Conley - I'm Living Good
EXTD=
EXTT0=
EXTT1=
EXTT2=
EXTT3=
EXTT4=
EXTT5=
EXTT6=
EXTT7=
EXTT8=
EXTT9=
EXTT10=
EXTT11=
EXTT12=
EXTT13=
EXTT14=
EXTT15=
EXTT16=
EXTT17=
EXTT18=
EXTT19=
PLAYORDER=
